<?xml version="1.0" encoding="UTF-8" standalone="no"?>
<svg
   xmlns:dc="http://purl.org/dc/elements/1.1/"
   xmlns:cc="http://creativecommons.org/ns#"
   xmlns:rdf="http://www.w3.org/1999/02/22-rdf-syntax-ns#"
   xmlns:svg="http://www.w3.org/2000/svg"
   xmlns="http://www.w3.org/2000/svg"
   aria-hidden="true"
   data-prefix="fas"
   data-icon="check-circle"
   class="svg-inline--fa fa-check-circle fa-w-16"
   role="img"
   viewBox="0 0 512 512"
   id="svg2"
   version="1.1">
  <metadata
     id="metadata10">
    <rdf:RDF>
      <cc:Work
         rdf:about="">
        <dc:format>image/svg+xml</dc:format>
        <dc:type
           rdf:resource="http://purl.org/dc/dcmitype/StillImage" />
        <dc:title></dc:title>
      </cc:Work>
    </rdf:RDF>
  </metadata>
  <defs
     id="defs8" />
  <rect
     y="0"
     x="0"
     height="512"
     width="512"
     id="rect3334"
     style="fill:#ffaaaa;fill-rule:evenodd;stroke:none;stroke-width:1px;stroke-linecap:butt;stroke-linejoin:miter;stroke-opacity:1;fill-opacity:1" />
  <path
     style="fill:currentColor"
     d="M 459.52542,256 C 459.52542,368.40429 368.4043,459.52542 256,459.52542 143.5957,459.52542 52.474578,368.40429 52.474578,255.99999 52.474578,143.5957 143.5957,52.474575 256,52.474575 368.4043,52.474575 459.52542,143.5957 459.52542,256 Z M 232.45835,363.76506 383.46108,212.76233 c 5.12753,-5.12753 5.12753,-13.4417 0,-18.56923 l -18.56923,-18.56924 c -5.12753,-5.12834 -13.44171,-5.12834 -18.57006,0 l -123.14847,123.14766 -57.49511,-57.4951 c -5.12753,-5.12754 -13.44171,-5.12754 -18.57006,0 l -18.56923,18.56922 c -5.12753,5.12754 -5.12753,13.44171 0,18.56924 l 85.34937,85.34937 c 5.12835,5.12835 13.44171,5.12835 18.57006,8.1e-4 z"
     id="path4" />
</svg>
