<?xml version="1.0" encoding="UTF-8" standalone="no"?>
<svg
   xmlns:dc="http://purl.org/dc/elements/1.1/"
   xmlns:cc="http://creativecommons.org/ns#"
   xmlns:rdf="http://www.w3.org/1999/02/22-rdf-syntax-ns#"
   xmlns:svg="http://www.w3.org/2000/svg"
   xmlns="http://www.w3.org/2000/svg"
   xmlns:xlink="http://www.w3.org/1999/xlink"
   version="1.1"
   id="svg2"
   viewBox="0 0 512 512"
   role="img"
   class="svg-inline--fa fa-check-circle fa-w-16"
   data-icon="check-circle"
   data-prefix="fas"
   aria-hidden="true">
  <metadata
     id="metadata10">
    <rdf:RDF>
      <cc:Work
         rdf:about="">
        <dc:format>image/svg+xml</dc:format>
        <dc:type
           rdf:resource="http://purl.org/dc/dcmitype/StillImage" />
        <dc:title></dc:title>
      </cc:Work>
    </rdf:RDF>
  </metadata>
  <defs
     id="defs8">
    <linearGradient
       id="linearGradient4333">
      <stop
         id="stop4335"
         offset="0"
         style="stop-color:#38ef7d;stop-opacity:1" />
      <stop
         id="stop4337"
         offset="1"
         style="stop-color:#11998e;stop-opacity:1" />
    </linearGradient>
    <linearGradient
       gradientUnits="userSpaceOnUse"
       y2="516.33899"
       x2="258.16949"
       y1="175.72882"
       x1="91.118645"
       id="linearGradient4339"
       xlink:href="#linearGradient4333" />
    <filter
       height="1.3864"
       y="-0.19319999"
       width="1.3864"
       x="-0.19320001"
       id="filter4406"
       style="color-interpolation-filters:sRGB">
      <feGaussianBlur
         id="feGaussianBlur4408"
         stdDeviation="10.715233" />
    </filter>
  </defs>
  <path
     style="fill:#000000;fill-opacity:1;filter:url(#filter4406);opacity:0.353"
     d="m 322.55424,255.99999 c 0,36.757 -29.79724,66.55426 -66.55424,66.55426 -36.757,0 -66.55424,-29.79726 -66.55424,-66.55426 0,-36.75699 29.79724,-66.55424 66.55424,-66.55424 36.757,0 66.55424,29.79725 66.55424,66.55424 z m -74.25252,35.23994 49.37894,-49.37896 c 1.67675,-1.67674 1.67675,-4.39553 0,-6.07226 l -6.07226,-6.07228 c -1.67673,-1.677 -4.39554,-1.677 -6.07254,0 l -40.27041,40.27016 -18.80131,-18.80131 c -1.67673,-1.67675 -4.39554,-1.67675 -6.07254,0 l -6.07226,6.07227 c -1.67675,1.67674 -1.67675,4.39553 0,6.07227 l 27.90983,27.90985 c 1.67701,1.67701 4.39554,1.67701 6.07255,2.6e-4 z"
     id="path4360" />
  <rect
     ry="24.75914"
     rx="24.75914"
     y="200.67798"
     x="0"
     height="110.64405"
     width="512"
     id="rect3335"
     style="fill:url(#linearGradient4339);fill-opacity:1;fill-rule:evenodd;stroke:none;stroke-width:1px;stroke-linecap:butt;stroke-linejoin:miter;stroke-opacity:1" />
  <path
     id="path4"
     d="m 322.55424,255.99999 c 0,36.757 -29.79724,66.55426 -66.55424,66.55426 -36.757,0 -66.55424,-29.79726 -66.55424,-66.55426 0,-36.75699 29.79724,-66.55424 66.55424,-66.55424 36.757,0 66.55424,29.79725 66.55424,66.55424 z m -74.25252,35.23994 49.37894,-49.37896 c 1.67675,-1.67674 1.67675,-4.39553 0,-6.07226 l -6.07226,-6.07228 c -1.67673,-1.677 -4.39554,-1.677 -6.07254,0 l -40.27041,40.27016 -18.80131,-18.80131 c -1.67673,-1.67675 -4.39554,-1.67675 -6.07254,0 l -6.07226,6.07227 c -1.67675,1.67674 -1.67675,4.39553 0,6.07227 l 27.90983,27.90985 c 1.67701,1.67701 4.39554,1.67701 6.07255,2.6e-4 z"
     style="fill:#ffffff;fill-opacity:1" />
</svg>
